<svg xmlns="http://www.w3.org/2000/svg" width="22.835" height="23.019" viewBox="0 0 22.835 23.019"><defs><style>.a{fill:#fff;opacity:0.95;}</style></defs><g transform="translate(206.264 92.084)"><g transform="translate(-223.398 -92.084)"><path class="a" d="M-183.745-68.985c5.3.121,9.576,5.1,9.608,11.2h-4.6c0-5.255-1.366-9.566-5.012-9.716Z" transform="translate(204.04 80.807)"/><path class="a" d="M-166.684-61.553c0,.131,0,.42,0,.42h-6.1l0-.321c0-7.848,7.315-14.227,12.537-14.382v1.894c-3.575.192-6.441,5.665-6.441,12.388" transform="translate(198.686 84.151)"/><path class="a" d="M-173.271-69.761c0,.224,0,.465.008.7-3.277-.008-5.354-.026-6.233,0,0-.2,0-.368,0-.54,0-12.265,7.8-22.236,17.5-22.478v2.96c-6.641.3-11.273,8.854-11.273,19.362" transform="translate(201.968 92.084)"/><path class="a" d="M-175.754-64.567c0,.124,0,.268,0,.4h-5.35s.006-.356.006-.521c0-8.173-3.444-14.826-8.818-15.06v-2.3c7.85.188,14.165,7.943,14.165,17.483" transform="translate(207.054 87.185)"/></g></g></svg>