<svg xmlns="http://www.w3.org/2000/svg" width="69.505" height="69.6" viewBox="0 0 69.505 69.6"><defs><style>.a{fill:#082551;}</style></defs><g transform="translate(0 -0.001)"><path class="a" d="M240.872,333.818h4.723a1.024,1.024,0,1,0,0-2.048h-4.723a1.024,1.024,0,0,0,0,2.048Zm0,0" transform="translate(-207.243 -286.668)"/><path class="a" d="M305.79,333.818h2.883a1.024,1.024,0,0,0,0-2.048H305.79a1.024,1.024,0,0,0,0,2.048Zm0,0" transform="translate(-263.337 -286.668)"/><path class="a" d="M352.559,333.818h3.849a1.024,1.024,0,1,0,0-2.048h-3.849a1.024,1.024,0,0,0,0,2.048Zm0,0" transform="translate(-303.748 -286.668)"/><path class="a" d="M240.872,368.275h3.489a1.024,1.024,0,1,0,0-2.048h-3.489a1.024,1.024,0,0,0,0,2.048Zm0,0" transform="translate(-207.243 -316.441)"/><path class="a" d="M289.821,368.275h6.95a1.024,1.024,0,1,0,0-2.048h-6.95a1.024,1.024,0,0,0,0,2.048Zm0,0" transform="translate(-249.538 -316.441)"/><path class="a" d="M368.64,366.227h-1.924a1.024,1.024,0,1,0,0,2.048h1.924a1.024,1.024,0,1,0,0-2.048Zm0,0" transform="translate(-315.98 -316.442)"/><path class="a" d="M118.149,249.938a4.488,4.488,0,0,0-1.766,3.566V258.1a2.131,2.131,0,0,0,2.129,2.129h5.358a3.836,3.836,0,1,0,4.19-4.609V253.5a4.492,4.492,0,0,0-1.763-3.568,5.341,5.341,0,1,0-8.147,0Zm9.473,7.7a1.787,1.787,0,1,1-1.788,1.787A1.789,1.789,0,0,1,127.622,257.639Zm-5.4-14.442a3.292,3.292,0,1,1-3.293,3.292A3.3,3.3,0,0,1,122.222,243.2Zm-3.79,10.307a2.449,2.449,0,0,1,1.432-2.225,5.329,5.329,0,0,0,4.716,0,2.45,2.45,0,0,1,1.432,2.225v2.443a3.854,3.854,0,0,0-2.016,2.23h-5.484a.081.081,0,0,1-.081-.08Zm0,0" transform="translate(-100.562 -208.366)"/><path class="a" d="M67.8,58.112H65.549V21.467a4.086,4.086,0,0,0-4.081-4.081h-8.32V2.922A2.924,2.924,0,0,0,50.227,0H19.278a2.924,2.924,0,0,0-2.921,2.921V5.344a1.018,1.018,0,0,0,2.036,0V2.922a.885.885,0,0,1,.884-.884H50.227a.885.885,0,0,1,.885.884V25.38a.885.885,0,0,1-.885.884H45.916a2.928,2.928,0,0,0-2.529,1.46l-1.463,2.535-1.464-2.535a2.928,2.928,0,0,0-2.529-1.46H19.278a.885.885,0,0,1-.884-.884V10.1a1.018,1.018,0,0,0-2.036,0v7.287H8.037a4.086,4.086,0,0,0-4.081,4.081V58.112H1.707A1.709,1.709,0,0,0,0,59.818v5.428A4.36,4.36,0,0,0,4.355,69.6H65.15a4.361,4.361,0,0,0,4.355-4.355V59.818A1.709,1.709,0,0,0,67.8,58.112ZM19.278,28.3H37.93a.887.887,0,0,1,.766.442L40.5,31.871a1.641,1.641,0,0,0,2.841,0l1.806-3.129a.887.887,0,0,1,.766-.442h4.311a2.924,2.924,0,0,0,2.921-2.921V24.26h4.891a.1.1,0,0,1,.1.1V42.075a1.024,1.024,0,1,0,2.048,0V24.362a2.152,2.152,0,0,0-2.15-2.15H53.147V19.434h8.32A2.036,2.036,0,0,1,63.5,21.467V58.111H60.189V46.854a1.024,1.024,0,1,0-2.048,0V58.111H11.364V24.362a.1.1,0,0,1,.1-.1h4.891V25.38A2.924,2.924,0,0,0,19.278,28.3ZM44.521,60.16l-.88,2.014H25.864l-.88-2.014ZM6,21.467a2.035,2.035,0,0,1,2.033-2.033h8.321v2.778H11.466a2.153,2.153,0,0,0-2.15,2.15V58.112H6ZM67.457,65.246a2.31,2.31,0,0,1-2.307,2.307H4.355a2.31,2.31,0,0,1-2.307-2.307V60.16h20.7L24.077,63.2a1.706,1.706,0,0,0,1.564,1.023H43.864A1.707,1.707,0,0,0,45.428,63.2l1.328-3.039h20.7v5.087Zm0,0"/><path class="a" d="M181.8,84.471a3.154,3.154,0,1,0-3.155,3.155A3.158,3.158,0,0,0,181.8,84.471Zm-4.272,0a1.118,1.118,0,1,1,1.118,1.118A1.119,1.119,0,0,1,177.528,84.471Zm0,0" transform="translate(-151.636 -70.261)"/><path class="a" d="M238.754,84.471a3.154,3.154,0,1,0-3.154,3.155A3.158,3.158,0,0,0,238.754,84.471Zm-4.272,0a1.118,1.118,0,1,1,1.118,1.118A1.119,1.119,0,0,1,234.481,84.471Zm0,0" transform="translate(-200.847 -70.261)"/><path class="a" d="M292.549,87.633a3.154,3.154,0,0,0,.437-6.278,3.046,3.046,0,0,0-.437-.031,3.158,3.158,0,0,0-3.155,3.154,3.108,3.108,0,0,0,.317,1.378A3.176,3.176,0,0,0,292.549,87.633Zm0-4.273a1.068,1.068,0,0,1,.155.012,1.118,1.118,0,1,1-1.163,1.59,1.09,1.09,0,0,1-.11-.484A1.119,1.119,0,0,1,292.549,83.36Zm0,0" transform="translate(-250.054 -70.268)"/></g></svg>