<svg xmlns="http://www.w3.org/2000/svg" width="12.586" height="22.074" viewBox="0 0 12.586 22.074"><defs><style>.a{fill:#082551;}</style></defs><g transform="translate(0)"><path class="a" d="M121.768,9.623a2.1,2.1,0,0,0-1.872-.329,12.424,12.424,0,0,1-2.927.508V8.816a3.466,3.466,0,0,0,2.82-3.4,6.406,6.406,0,0,0-1.412-3.185c-.683-.993-1.4-1.836-1.536-1.995a.675.675,0,0,0-1.024,0c-.137.159-.853,1-1.536,2a6.405,6.405,0,0,0-1.412,3.185,3.466,3.466,0,0,0,2.808,3.4V9.8a12.427,12.427,0,0,1-2.914-.507,2.118,2.118,0,0,0-2.726,2.028v8.753a2,2,0,0,0,2,2h8.588a2,2,0,0,0,2-2V11.322A2.1,2.1,0,0,0,121.768,9.623Zm-7.607-4.207c0-.735,1.027-2.357,2.167-3.773,1.14,1.417,2.167,3.038,2.167,3.773a2.171,2.171,0,0,1-1.526,2.07V6.6a.647.647,0,0,0-1.294,0v.883A2.171,2.171,0,0,1,114.161,5.416Zm7.167,14.659a.706.706,0,0,1-.705.705h-8.588a.706.706,0,0,1-.705-.705V11.322a.825.825,0,0,1,.822-.825.832.832,0,0,1,.239.035,13.673,13.673,0,0,0,7.877,0,.824.824,0,0,1,1.061.789v8.753Z" transform="translate(-110.036 0)"/></g></svg>