<svg xmlns="http://www.w3.org/2000/svg" width="22.693" height="39.8" viewBox="0 0 22.693 39.8"><defs><style>.a{fill:#3586b1;}</style></defs><g transform="translate(-110.036)"><g transform="translate(110.036)"><path class="a" d="M131.19,17.351a3.784,3.784,0,0,0-3.376-.594,22.4,22.4,0,0,1-5.277.916V15.9a6.249,6.249,0,0,0,5.084-6.131c0-1.373-.833-3.252-2.547-5.743-1.232-1.791-2.524-3.311-2.769-3.6a1.218,1.218,0,0,0-1.847,0c-.246.287-1.538,1.807-2.77,3.6-1.714,2.492-2.547,4.37-2.547,5.743a6.249,6.249,0,0,0,5.063,6.127v1.78a22.405,22.405,0,0,1-5.253-.915,3.818,3.818,0,0,0-4.915,3.657V36.2a3.608,3.608,0,0,0,3.6,3.6h15.485a3.608,3.608,0,0,0,3.6-3.6V20.414A3.784,3.784,0,0,0,131.19,17.351ZM117.474,9.765c0-1.326,1.852-4.249,3.907-6.8,2.055,2.554,3.907,5.478,3.907,6.8a3.914,3.914,0,0,1-2.752,3.733V11.9a1.166,1.166,0,0,0-2.333,0v1.593A3.914,3.914,0,0,1,117.474,9.765ZM130.4,36.2a1.273,1.273,0,0,1-1.272,1.272H113.64a1.273,1.273,0,0,1-1.272-1.272V20.414a1.488,1.488,0,0,1,1.481-1.487,1.5,1.5,0,0,1,.431.064,24.654,24.654,0,0,0,14.2,0,1.486,1.486,0,0,1,1.912,1.423V36.2Z" transform="translate(-110.036 0)"/></g></g></svg>