<svg xmlns="http://www.w3.org/2000/svg" width="64.905" height="113.835" viewBox="0 0 64.905 113.835"><defs><style>.a{opacity:0.26;}.b{fill:#fff;}</style></defs><g class="a" transform="translate(-110.036)"><g transform="translate(110.036)"><path class="b" d="M170.54,49.626a10.823,10.823,0,0,0-9.656-1.7,64.069,64.069,0,0,1-15.094,2.62V45.465a17.874,17.874,0,0,0,14.542-17.535c0-3.928-2.383-9.3-7.284-16.427-3.524-5.123-7.218-9.471-7.921-10.288a3.482,3.482,0,0,0-5.282,0c-.7.82-4.4,5.168-7.923,10.29-4.9,7.126-7.284,12.5-7.284,16.427a17.874,17.874,0,0,0,14.48,17.524v5.09a64.083,64.083,0,0,1-15.025-2.617,10.92,10.92,0,0,0-14.058,10.46v45.139a10.32,10.32,0,0,0,10.308,10.308h44.289a10.32,10.32,0,0,0,10.308-10.308V58.387A10.823,10.823,0,0,0,170.54,49.626Zm-39.23-21.7c0-3.791,5.3-12.153,11.176-19.46,5.877,7.306,11.176,15.668,11.176,19.46a11.2,11.2,0,0,1-7.871,10.677V34.031a3.336,3.336,0,0,0-6.671,0v4.555A11.2,11.2,0,0,1,131.31,27.93Zm36.96,75.6a3.641,3.641,0,0,1-3.637,3.637H120.344a3.641,3.641,0,0,1-3.637-3.637V58.387a4.256,4.256,0,0,1,4.237-4.253,4.29,4.29,0,0,1,1.233.183,70.514,70.514,0,0,0,40.623,0,4.249,4.249,0,0,1,5.47,4.07v45.139Z" transform="translate(-110.036)"/></g></g></svg>