<svg xmlns="http://www.w3.org/2000/svg" width="55.535" height="97.4" viewBox="0 0 55.535 97.4"><defs><style>.a{fill:#fff;}</style></defs><g transform="translate(-110.036)"><g transform="translate(110.036)"><path class="a" d="M161.8,42.462a9.261,9.261,0,0,0-8.262-1.454,54.819,54.819,0,0,1-12.915,2.242V38.9a15.293,15.293,0,0,0,12.443-15c0-3.361-2.039-7.958-6.233-14.056-3.015-4.383-6.176-8.1-6.777-8.8a2.98,2.98,0,0,0-4.52,0c-.6.7-3.764,4.422-6.779,8.8-4.194,6.1-6.233,10.7-6.233,14.056a15.294,15.294,0,0,0,12.39,14.994v4.355a54.832,54.832,0,0,1-12.856-2.239,9.344,9.344,0,0,0-12.028,8.95V88.58a8.83,8.83,0,0,0,8.82,8.82h37.895a8.83,8.83,0,0,0,8.82-8.82V49.958A9.261,9.261,0,0,0,161.8,42.462ZM128.238,23.9c0-3.244,4.534-10.4,9.562-16.65,5.028,6.251,9.562,13.406,9.562,16.65a9.58,9.58,0,0,1-6.735,9.135V29.118a2.854,2.854,0,0,0-5.708,0v3.9A9.579,9.579,0,0,1,128.238,23.9Zm31.624,64.683a3.115,3.115,0,0,1-3.112,3.112H118.856a3.116,3.116,0,0,1-3.112-3.112V49.958a3.642,3.642,0,0,1,3.625-3.639,3.671,3.671,0,0,1,1.055.156,60.333,60.333,0,0,0,34.758,0,3.636,3.636,0,0,1,4.68,3.483V88.581Z" transform="translate(-110.036 0)"/></g></g></svg>