<svg xmlns="http://www.w3.org/2000/svg" width="15.452" height="27.1" viewBox="0 0 15.452 27.1"><defs><style>.a{fill:#fff;}</style></defs><g transform="translate(-110.036)"><g transform="translate(110.036)"><path class="a" d="M124.44,11.814a2.577,2.577,0,0,0-2.3-.4,15.252,15.252,0,0,1-3.593.624v-1.21a4.255,4.255,0,0,0,3.462-4.175c0-.935-.567-2.214-1.734-3.911-.839-1.219-1.718-2.255-1.886-2.449a.829.829,0,0,0-1.258,0c-.168.2-1.047,1.23-1.886,2.45-1.167,1.7-1.734,2.976-1.734,3.911a4.255,4.255,0,0,0,3.447,4.172v1.212a15.256,15.256,0,0,1-3.577-.623,2.6,2.6,0,0,0-3.347,2.49V24.646A2.457,2.457,0,0,0,112.49,27.1h10.543a2.457,2.457,0,0,0,2.454-2.454V13.9A2.577,2.577,0,0,0,124.44,11.814ZM115.1,6.649c0-.9,1.261-2.893,2.661-4.633,1.4,1.739,2.661,3.73,2.661,4.633a2.665,2.665,0,0,1-1.874,2.542V8.1a.794.794,0,0,0-1.588,0V9.186A2.665,2.665,0,0,1,115.1,6.649Zm8.8,18a.867.867,0,0,1-.866.866H112.49a.867.867,0,0,1-.866-.866V13.9a1.013,1.013,0,0,1,1.009-1.012,1.021,1.021,0,0,1,.294.043,16.787,16.787,0,0,0,9.671,0,1.012,1.012,0,0,1,1.3.969V24.646Z" transform="translate(-110.036 0)"/></g></g></svg>