<?xml version="1.0" encoding="UTF-8"?>
<svg width="15px" height="15px" viewBox="0 0 15 15" version="1.1" xmlns="http://www.w3.org/2000/svg" xmlns:xlink="http://www.w3.org/1999/xlink">
    <title>Combined Shape</title>
    <g id="מתחברים-זוכרים" stroke="none" stroke-width="1" fill="none" fill-rule="evenodd">
        <g id="דף-הבית" transform="translate(-615.000000, -4733.000000)" fill="#082551" fill-rule="nonzero">
            <g id="noun_instagram_3350818" transform="translate(615.058212, 4733.407625)">
                <path d="M12.0235294,-1.0658141e-13 C13.1787375,0.00323137032 14.1144157,0.938909531 14.1176471,2.09411765 L14.1176471,2.09411765 L14.1176471,12.0235294 C14.1144157,13.1787375 13.1787375,14.1144157 12.0235294,14.1176471 L12.0235294,14.1176471 L2.09411765,14.1176471 C0.938909531,14.1144157 0.00323137032,13.1787375 0,12.0235294 L0,12.0235294 L0,2.09411765 C0.00323137032,0.938909531 0.938909531,0.00323137032 2.09411765,-1.0658141e-13 L2.09411765,-1.0658141e-13 Z M12.0235294,1.17647059 L2.09411765,1.17647059 C1.58731517,1.17647059 1.17647059,1.58731517 1.17647059,2.09411765 L1.17647059,2.09411765 L1.17647059,12.0235294 C1.17647059,12.5303319 1.58731517,12.9411765 2.09411765,12.9411765 L2.09411765,12.9411765 L12.0235294,12.9411765 C12.5303319,12.9411765 12.9411765,12.5303319 12.9411765,12.0235294 L12.9411765,12.0235294 L12.9411765,2.09411765 C12.9411765,1.58731517 12.5303319,1.17647059 12.0235294,1.17647059 L12.0235294,1.17647059 Z M7.05882353,3.52941176 C7.99488173,3.52941176 8.89260142,3.90125944 9.55449452,4.56315254 C10.2163876,5.22504564 10.5882353,6.12276533 10.5882353,7.05882353 C10.5882353,9.00806382 9.00806382,10.5882353 7.05882353,10.5882353 C5.10958324,10.5882353 3.52941176,9.00806382 3.52941176,7.05882353 C3.52941176,5.10958324 5.10958324,3.52941176 7.05882353,3.52941176 Z M7.05882353,4.70588235 C5.75933,4.70588235 4.70588235,5.75933 4.70588235,7.05882353 C4.70588235,8.35831706 5.75933,9.41176471 7.05882353,9.41176471 C7.68286233,9.41176471 8.28134212,9.16386626 8.72260419,8.72260419 C9.16386626,8.28134212 9.41176471,7.68286233 9.41176471,7.05882353 C9.41176471,5.75933 8.35831706,4.70588235 7.05882353,4.70588235 Z M10.8823529,2.35294118 C11.369663,2.35294118 11.7647059,2.74798404 11.7647059,3.23529412 C11.7647059,3.72260419 11.369663,4.11764706 10.8823529,4.11764706 C10.3950429,4.11764706 10,3.72260419 10,3.23529412 C10,2.74798404 10.3950429,2.35294118 10.8823529,2.35294118 Z" id="Combined-Shape"></path>
            </g>
        </g>
    </g>
</svg>