<?xml version="1.0" encoding="UTF-8"?>
<svg width="11px" height="19px" viewBox="0 0 11 19" version="1.1" xmlns="http://www.w3.org/2000/svg" xmlns:xlink="http://www.w3.org/1999/xlink">
    <title>Fill 1</title>
    <g id="מתחברים-זוכרים" stroke="none" stroke-width="1" fill="none" fill-rule="evenodd">
        <g id="דף-הבית" transform="translate(-712.000000, -4729.000000)" fill="#082551">
            <path d="M716.505991,4746.28038 L718.97493,4746.28038 L718.97493,4739.6215 C718.97493,4739.30633 719.231433,4739.04997 719.546461,4739.04997 L721.846339,4739.04997 L721.84727,4736.67581 L719.546323,4736.67581 C719.231295,4736.67581 718.97493,4736.41948 718.97493,4736.10428 L718.97493,4734.56054 C718.97493,4734.15634 719.016014,4733.69669 719.321082,4733.35123 C719.68974,4732.93359 720.270681,4732.88537 720.675668,4732.88537 L721.948258,4732.88486 L721.948258,4730.70561 L719.972197,4730.70237 C717.834417,4730.70237 716.505991,4732.07085 716.505991,4734.2735 L716.505991,4736.10428 C716.505991,4736.41934 716.249626,4736.67581 715.934563,4736.67581 L714.001207,4736.67581 L714.001207,4739.04997 L715.934563,4739.04997 C716.249626,4739.04997 716.505991,4739.30633 716.505991,4739.6215 L716.505991,4746.28038 Z M719.153469,4747.31491 L716.327452,4747.31491 C715.855427,4747.31491 715.47143,4746.93094 715.47143,4746.45888 L715.47143,4740.08467 L713.822668,4740.08467 C713.350643,4740.08467 712.966646,4739.70053 712.966646,4739.22864 L712.966646,4736.49727 C712.966646,4736.02525 713.350643,4735.64125 713.822668,4735.64125 L715.47143,4735.64125 L715.47143,4734.2735 C715.47143,4732.91729 715.89727,4731.76347 716.702798,4730.93692 C717.511979,4730.10661 718.642806,4729.66785 719.97299,4729.66785 L722.128279,4729.67133 C722.599477,4729.67216 722.982819,4730.05612 722.982819,4730.52735 L722.982819,4733.06336 C722.982819,4733.53542 722.59896,4733.91938 722.127038,4733.91938 L720.675944,4733.91994 C720.233388,4733.91994 720.120681,4734.00865 720.096589,4734.03585 C720.056883,4734.08097 720.009628,4734.20846 720.009628,4734.56054 L720.009628,4735.64111 L722.017985,4735.64111 C722.169192,4735.64111 722.315676,4735.67844 722.44155,4735.74872 C722.713115,4735.90044 722.881969,4736.18735 722.881969,4736.49741 L722.8809,4739.22878 C722.8809,4739.70053 722.496904,4740.08453 722.024878,4740.08453 L720.009628,4740.08453 L720.009628,4746.45888 C720.009628,4746.93094 719.625494,4747.31491 719.153469,4747.31491 L719.153469,4747.31491 Z" id="Fill-1"></path>
        </g>
    </g>
</svg>