<svg xmlns="http://www.w3.org/2000/svg" width="51.315" height="90" viewBox="0 0 51.315 90"><defs><style>.a{opacity:0.1;}.b{fill:#0a2d63;}</style></defs><g class="a" transform="translate(-110.036)"><g transform="translate(110.036)"><path class="b" d="M157.872,39.235a8.557,8.557,0,0,0-7.634-1.343A50.654,50.654,0,0,1,138.3,39.963V35.945a14.131,14.131,0,0,0,11.5-13.864c0-3.105-1.884-7.353-5.759-12.988-2.786-4.05-5.707-7.488-6.262-8.134a2.753,2.753,0,0,0-4.176,0c-.557.648-3.478,4.086-6.264,8.136-3.875,5.634-5.759,9.883-5.759,12.988A14.132,14.132,0,0,0,133.03,35.937v4.024a50.665,50.665,0,0,1-11.879-2.069,8.634,8.634,0,0,0-11.114,8.27V81.85a8.159,8.159,0,0,0,8.15,8.15H153.2a8.159,8.159,0,0,0,8.15-8.15V46.162A8.557,8.557,0,0,0,157.872,39.235ZM126.855,22.082c0-3,4.189-9.608,8.836-15.385,4.646,5.776,8.836,12.388,8.836,15.385a8.852,8.852,0,0,1-6.223,8.441V26.906a2.637,2.637,0,0,0-5.275,0v3.6A8.851,8.851,0,0,1,126.855,22.082ZM156.077,81.85a2.879,2.879,0,0,1-2.876,2.876H118.186a2.879,2.879,0,0,1-2.876-2.876V46.162a3.365,3.365,0,0,1,3.35-3.363,3.391,3.391,0,0,1,.975.144,55.749,55.749,0,0,0,32.117,0,3.36,3.36,0,0,1,4.325,3.218V81.85Z" transform="translate(-110.036)"/></g></g></svg>