<?xml version="1.0" encoding="UTF-8"?>
<svg width="98px" height="79px" viewBox="0 0 98 79" version="1.1" xmlns="http://www.w3.org/2000/svg" xmlns:xlink="http://www.w3.org/1999/xlink">
    <title>Group 5</title>
    <g id="מתחברים-זוכרים" stroke="none" stroke-width="1" fill="none" fill-rule="evenodd">
        <g id="דף-הבית" transform="translate(-1580.000000, -1738.000000)" fill-rule="nonzero">
            <g id="Group-5" transform="translate(1580.867717, 1738.090121)">
                <g id="noun_Computer_3529589" transform="translate(0.000000, -0.000000)" fill="#082551">
                    <path d="M87.3168814,0 L8.51872014,0 C3.83342406,0 0,3.56597587 0,7.92439083 L0,55.4707358 L0,60.42348 C0,64.2866206 3.30100405,67.357322 7.45388012,67.357322 L37.2694006,67.357322 L37.2694006,73.3006151 L28.7506805,73.3006151 C27.5793564,73.3006151 26.6210004,74.1921091 26.6210004,75.2817128 C26.6210004,76.3713166 27.5793564,77.2628106 28.7506805,77.2628106 L67.0849211,77.2628106 C68.2562451,77.2628106 69.2146011,76.3713166 69.2146011,75.2817128 C69.2146011,74.1921091 68.2562451,73.3006151 67.0849211,73.3006151 L58.5662009,73.3006151 L58.5662009,67.357322 L88.3817214,67.357322 C92.5345975,67.357322 95.8356015,64.2866206 95.8356015,60.42348 L95.8356015,55.4707358 L95.8356015,7.92439083 C95.8356015,3.56597587 92.0021775,0 87.3168814,0 Z M4.25936007,7.92439083 C4.25936007,5.74518335 6.1760721,3.96219541 8.51872014,3.96219541 L87.3168814,3.96219541 C89.6595294,3.96219541 91.5762415,5.74518335 91.5762415,7.92439083 L91.5762415,53.4896381 L4.25936007,53.4896381 L4.25936007,7.92439083 Z M54.3068409,73.3006151 L41.5287607,73.3006151 L41.5287607,67.357322 L54.3068409,67.357322 L54.3068409,73.3006151 Z M91.5762415,60.42348 C91.5762415,62.1074131 90.1919495,63.3951266 88.3817214,63.3951266 L7.45388012,63.3951266 C5.64365209,63.3951266 4.25936007,62.1074131 4.25936007,60.42348 L4.25936007,57.4518335 L91.5762415,57.4518335 L91.5762415,60.42348 Z" id="Shape"></path>
                </g>
                <path d="M33.771163,31.4029864 C32.720614,31.4029864 31.8554561,30.5378285 31.8554561,29.4872796 C31.8554561,28.4367306 32.720614,27.5715727 33.771163,27.5715727 L56.5948535,27.5715727 L50.4151539,21.3918731 C49.6735899,20.6503092 49.6735899,19.4143692 50.4151539,18.6728053 C51.1567178,17.9312413 52.3926578,17.9312413 53.1342217,18.6728053 L62.5891621,28.1277457 C62.9599441,28.4985276 63.145335,28.9929036 63.145335,29.4872796 C63.145335,29.9816555 62.9599441,30.4760315 62.5891621,30.8468135 L53.1342217,40.3017539 C52.7634397,40.6725358 52.2690638,40.8579268 51.7746878,40.8579268 C51.2803118,40.8579268 50.7859359,40.6725358 50.4151539,40.3017539 C49.6735899,39.5601899 49.6735899,38.32425 50.4151539,37.582686 L56.5948535,31.4029864 L33.771163,31.4029864 Z" id="Shape" fill="#16B3AB" transform="translate(47.500396, 29.487280) rotate(-90.000000) translate(-47.500396, -29.487280) "></path>
            </g>
        </g>
    </g>
</svg>