<?xml version="1.0" encoding="UTF-8"?>
<svg width="94px" height="96px" viewBox="0 0 94 96" version="1.1" xmlns="http://www.w3.org/2000/svg" xmlns:xlink="http://www.w3.org/1999/xlink">
    <title>Group 7</title>
    <g id="מתחברים-זוכרים" stroke="none" stroke-width="1" fill="none" fill-rule="evenodd">
        <g id="דף-הבית" transform="translate(-1346.000000, -1725.000000)" fill-rule="nonzero">
            <g id="Group-7" transform="translate(1346.430434, 1725.542455)">
                <path d="M38.9907778,39.2134937 L38.532426,22.0730476 C38.437081,18.1664644 35.5498224,14.8926273 31.6857966,14.3097146 C29.4732138,14.0171613 27.2401538,14.6745082 25.5389539,16.1191635 C23.8377541,17.5638188 22.8272866,19.6608684 22.7574862,21.8916167 L21.5925088,62.5130417 C21.1740595,62.2567539 20.7999701,61.9342632 20.4848254,61.5581421 L17.333657,56.1629599 C14.7603949,51.7749524 9.81098987,49.3529031 4.76717951,50.0134071 C2.99163331,50.2494245 1.44281931,51.3366609 0.617538794,52.9263717 C-0.207741721,54.5160826 -0.205734856,56.4084102 0.622915661,57.996367 L12.6928454,81.3054639 C13.7831752,83.3662113 15.439715,85.0724473 17.4673429,86.2231964 L17.7442638,86.3568823 L23.7887777,88.858719 L23.9702086,88.925562 C25.0532364,89.2805093 25.9081181,90.1212607 26.2810654,91.1982228 L26.911299,93.0220808 C27.3411108,94.2693261 28.7006342,94.9319869 29.9478795,94.5021751 C31.1951247,94.0723633 31.8577855,92.7128399 31.4279737,91.4655946 L30.778642,89.6608346 C29.9286456,87.1999646 27.9906449,85.2690112 25.5266948,84.4279853 L19.7113568,82.0216385 C18.5388667,81.3228954 17.5809241,80.3154041 16.9421482,79.109195 L4.86266946,55.7905491 C4.75490036,55.5843111 4.75404935,55.3385707 4.86038746,55.1315911 C4.96672557,54.9246116 5.16699465,54.782199 5.39741319,54.7497087 C8.53525959,54.3339821 11.6167306,55.838974 13.2180401,58.5693067 L16.4551495,64.0599788 C16.5011858,64.1425805 16.5522081,64.222303 16.6079334,64.2987037 C18.6705163,67.0297163 22.3373304,68.7771824 25.2020289,66.8291874 C25.8465647,66.4031595 26.2450685,65.6915455 26.2715164,64.9193884 L27.5033367,22.0634986 C27.5244386,21.1716997 27.9259531,20.3315059 28.6065846,19.7548852 C29.287216,19.1782645 30.1819692,18.9202796 31.0651119,19.0460162 C32.6092076,19.3093219 33.7432528,20.6404174 33.7579285,22.2067335 L34.3595152,44.7137149 C34.3928564,45.8492634 35.2218036,46.8040157 36.3414305,46.9964154 C37.4610575,47.188815 38.561174,46.5655582 38.9716798,45.5062815 C39.556979,43.9644135 41.176977,43.0774647 42.7912778,43.4150516 C44.3963222,43.7977609 45.5150333,45.2508909 45.4745454,46.9004347 L45.4745454,47.5211194 C45.4731195,48.5185701 46.0919849,49.4117657 47.0263647,49.7608278 C47.9607444,50.10989 49.0136518,49.8412291 49.6665542,49.0871546 C50.4120413,48.2181532 51.5514312,47.7926848 52.6840367,47.9603732 C54.383944,48.2630771 55.6039375,49.7677357 55.5487352,51.4935014 L55.5487352,52.0950881 C55.5473093,53.0925388 56.1661747,53.9857343 57.1005544,54.3347964 C58.0349342,54.6838586 59.0878416,54.4151978 59.740744,53.6611232 C60.4056733,52.9058913 61.3702889,52.4829982 62.3762666,52.5056948 C64.2545419,52.6527442 65.6848357,54.2513078 65.622925,56.134313 L65.622925,74.5925204 C65.622925,80.2168785 62.0229538,84.5043773 60.4760166,86.0513144 C59.5013234,87.0431692 58.7550259,88.2359416 58.2892968,89.5462466 L57.6113181,91.4560456 C57.2932073,92.2675193 57.4426294,93.1878632 58.0011268,93.8570154 C58.5596241,94.5261677 59.4384145,94.8377558 60.293693,94.6698786 C61.1489716,94.5020015 61.8447778,93.8813458 62.1088948,93.0507278 L62.7868734,91.1409288 C63.0248363,90.4955777 63.3994277,89.9092609 63.8850079,89.4221097 C66.3104526,86.939371 70.388172,81.7065217 70.388172,74.5829714 L70.388172,56.124764 C70.4252061,51.6718826 66.956263,47.9758814 62.5099526,47.7311973 C61.5371471,47.7037576 60.5671959,47.8492503 59.6452541,48.1609021 C58.0330442,44.2044542 53.6108427,42.1966489 49.5710643,43.5869335 C48.5428493,41.0725623 46.3171614,39.2453443 43.6506874,38.726495 C42.0831179,38.4311995 40.4634206,38.6004711 38.9907778,39.2134937 Z" id="Path" fill="#082551"></path>
                <path d="M55.7683621,15.2264182 C51.2041423,15.2195176 47.22288,18.324563 46.1178452,22.7529993 C45.0128104,27.1814355 47.0685581,31.7929058 51.1009451,33.9311303 C55.1333322,36.0693548 60.1039876,35.1837242 63.1497352,31.7843756 L72.5554954,37.8575364 C71.327318,42.7390848 73.9345721,47.7696558 78.6312691,49.5804489 C83.3279662,51.3912419 88.6374625,49.4129428 91.0041708,44.9703505 C93.3708791,40.5277582 92.0507053,35.0176258 87.9277243,32.1298996 C83.8047433,29.2421734 78.1752224,29.8847559 74.8090582,33.6273316 L65.4032981,27.5541708 C65.8075919,25.9883476 65.8075919,24.3454964 65.4032981,22.7796733 L74.8090582,16.7065124 C78.1910543,20.4774291 83.8558879,21.1301449 88.0068631,18.2271954 C92.1578382,15.3242459 93.4884206,9.77934478 91.1068246,5.30880664 C88.7252287,0.838268496 83.3810703,-1.15078877 78.6561218,0.67474471 C73.9311734,2.50027819 71.3126293,7.5658092 72.5554954,12.4763076 L63.1497352,18.5399194 C61.2733422,16.4347536 58.5883913,15.2294781 55.7683621,15.2264182 Z M55.7683621,30.3138303 C52.9205293,30.3138303 50.6119047,28.0052058 50.6119047,25.157373 C50.6119047,22.3095403 52.9205293,20.0009157 55.7683621,20.0009157 C58.6161948,20.0009157 60.9248194,22.3095403 60.9248194,25.157373 C60.9195643,28.0030262 58.6140152,30.3085752 55.7683621,30.3138303 L55.7683621,30.3138303 Z M82.1808824,35.0883279 C85.0287151,35.0883279 87.3373397,37.3969525 87.3373397,40.2447852 C87.3373397,43.0926179 85.0287151,45.4012425 82.1808824,45.4012425 C79.3330496,45.4012425 77.0244251,43.0926179 77.0244251,40.2447852 C77.0296802,37.399132 79.3352292,35.093583 82.1808824,35.0883279 Z M82.1808824,4.91350351 C85.0287151,4.91350351 87.3373397,7.2221281 87.3373397,10.0699608 C87.3373397,12.9177936 85.0287151,15.2264182 82.1808824,15.2264182 C79.3330496,15.2264182 77.0244251,12.9177936 77.0244251,10.0699608 C77.0296802,7.22430769 79.3352292,4.91875866 82.1808824,4.91350351 Z" id="Shape" fill="#16B3AB"></path>
            </g>
        </g>
    </g>
</svg>