<?xml version="1.0" encoding="UTF-8"?>
<svg width="108px" height="93px" viewBox="0 0 108 93" version="1.1" xmlns="http://www.w3.org/2000/svg" xmlns:xlink="http://www.w3.org/1999/xlink">
    <title>Group 12</title>
    <g id="מתחברים-זוכרים" stroke="none" stroke-width="1" fill="none" fill-rule="evenodd">
        <g id="דף-הבית" transform="translate(-1107.000000, -2045.000000)" fill-rule="nonzero">
            <g id="Group-12" transform="translate(1107.534470, 2045.419035)">
                <g id="Group-7-Copy" transform="translate(58.065238, 2.821810)" fill="#16B3AB">
                    <path d="M10.7683621,15.2264182 C6.20414229,15.2195176 2.22288003,18.324563 1.1178452,22.7529993 C0.0128103691,27.1814355 2.06855806,31.7929058 6.10094514,33.9311303 C10.1333322,36.0693548 15.1039876,35.1837242 18.1497352,31.7843756 L27.5554954,37.8575364 C26.327318,42.7390848 28.9345721,47.7696558 33.6312691,49.5804489 C38.3279662,51.3912419 43.6374625,49.4129428 46.0041708,44.9703505 C48.3708791,40.5277582 47.0507053,35.0176258 42.9277243,32.1298996 C38.8047433,29.2421734 33.1752224,29.8847559 29.8090582,33.6273316 L20.4032981,27.5541708 C20.8075919,25.9883476 20.8075919,24.3454964 20.4032981,22.7796733 L29.8090582,16.7065124 C33.1910543,20.4774291 38.8558879,21.1301449 43.0068631,18.2271954 C47.1578382,15.3242459 48.4884206,9.77934478 46.1068246,5.30880664 C43.7252287,0.838268496 38.3810703,-1.15078877 33.6561218,0.67474471 C28.9311734,2.50027819 26.3126293,7.5658092 27.5554954,12.4763076 L18.1497352,18.5399194 C16.2733422,16.4347536 13.5883913,15.2294781 10.7683621,15.2264182 Z M10.7683621,30.3138303 C7.92052933,30.3138303 5.61190475,28.0052058 5.61190475,25.157373 C5.61190475,22.3095403 7.92052933,20.0009157 10.7683621,20.0009157 C13.6161948,20.0009157 15.9248194,22.3095403 15.9248194,25.157373 C15.9195643,28.0030262 13.6140152,30.3085752 10.7683621,30.3138303 L10.7683621,30.3138303 Z M37.1808824,35.0883279 C40.0287151,35.0883279 42.3373397,37.3969525 42.3373397,40.2447852 C42.3373397,43.0926179 40.0287151,45.4012425 37.1808824,45.4012425 C34.3330496,45.4012425 32.0244251,43.0926179 32.0244251,40.2447852 C32.0296802,37.399132 34.3352292,35.093583 37.1808824,35.0883279 Z M37.1808824,4.91350351 C40.0287151,4.91350351 42.3373397,7.2221281 42.3373397,10.0699608 C42.3373397,12.9177936 40.0287151,15.2264182 37.1808824,15.2264182 C34.3330496,15.2264182 32.0244251,12.9177936 32.0244251,10.0699608 C32.0296802,7.22430769 34.3352292,4.91875866 37.1808824,4.91350351 Z" id="Shape"></path>
                </g>
                <path d="M32.2936466,7.10542736e-14 C42.9489362,7.10542736e-14 51.5867551,8.6378189 51.5867551,19.2931085 C51.5867551,26.1321419 48.0282874,32.1400506 42.6618807,35.566306 C54.9909148,36.9036939 64.5872932,47.3474505 64.5872932,60.0325613 L64.5872932,90.2419593 C64.5872932,91.2128984 63.8001916,92 62.8292525,92 L1.75804067,92 C0.787101617,92 -4.97379915e-14,91.2128984 -4.97379915e-14,90.2419593 L-4.97379915e-14,60.0325613 C-4.97379915e-14,47.3474505 9.59637836,36.9036939 21.925434,35.5649927 C16.5590058,32.1400506 13.0005381,26.1321419 13.0005381,19.2931085 C13.0005381,8.6378189 21.638357,7.10542736e-14 32.2936466,7.10542736e-14 Z M39.9747238,40.694114 L24.6125693,40.694114 C14.1017688,40.694114 5.54949238,49.0795523 5.28063977,59.5255292 L5.274122,60.0325613 L5.27236396,86.7241461 L59.3131712,86.7241461 L59.3131712,60.0325613 C59.3131712,49.5217608 50.9277328,40.9694843 40.4817559,40.7006317 L39.9747238,40.694114 Z M32.2936466,5.274122 C24.5511741,5.274122 18.2746601,11.5506361 18.2746601,19.2931085 C18.2746601,27.035581 24.5511741,33.312095 32.2936466,33.312095 C40.036119,33.312095 46.3126331,27.035581 46.3126331,19.2931085 C46.3126331,11.5506361 40.036119,5.274122 32.2936466,5.274122 Z" id="Combined-Shape" fill="#082551"></path>
            </g>
        </g>
    </g>
</svg>