<?xml version="1.0" encoding="UTF-8"?>
<svg width="81px" height="81px" viewBox="0 0 81 81" version="1.1" xmlns="http://www.w3.org/2000/svg" xmlns:xlink="http://www.w3.org/1999/xlink">
    <title>Group 6</title>
    <g id="מתחברים-זוכרים" stroke="none" stroke-width="1" fill="none" fill-rule="evenodd">
        <g id="דף-הבית" transform="translate(-1587.000000, -2054.000000)" fill-rule="nonzero">
            <g id="Group-6" transform="translate(1587.646716, 2054.920403)">
                <path d="M18.805768,15.9277533 C18.0056085,15.1275939 16.7124215,15.1275939 15.912262,15.9277533 C11.7902284,20.0497869 9.51906876,25.5296669 9.51906876,31.3624791 C9.51906876,37.1952914 11.7902284,42.6697831 15.912262,46.7945108 C16.3109947,47.1932434 16.8363519,47.3953039 17.359015,47.3953039 C17.8816781,47.3953039 18.4070353,47.1959376 18.805768,46.7945108 C19.6059274,45.9943513 19.6059274,44.6984702 18.805768,43.8983107 C15.4569524,40.5521893 13.6114668,36.0987766 13.6114668,31.3651733 C13.6114668,26.63157 15.4569524,22.1781572 18.805768,18.8266476 C19.6059274,18.0210998 19.6059274,16.7279128 18.805768,15.9277533 Z" id="Path" fill="#16B3AB"></path>
                <path d="M77.8262843,66.2003984 L58.5389389,46.9130529 C65.3793593,34.9402965 63.7278517,19.395111 53.5170626,9.18701605 C47.5953438,3.26260306 39.7203737,0 31.3442937,0 C22.9682137,0 15.0932436,3.26260306 9.17152475,9.18432191 C-3.05717492,21.4130216 -3.05717492,41.3092426 9.17152475,53.5352481 C15.0932436,59.4596611 22.9709078,62.7222641 31.3442937,62.7222641 C36.8996096,62.7222641 42.2178411,61.2593463 46.905644,58.5652067 L66.1822129,77.8417756 C67.496953,79.1592099 69.2265907,79.8165799 70.9535342,79.8165799 C72.6858659,79.8165799 74.4128094,79.1592099 75.7275495,77.8417756 L77.8235901,75.745735 C80.4584587,73.1135606 80.4584587,68.8298786 77.8262843,66.2003984 Z M12.0623365,50.639048 C1.4339558,40.0079731 1.4339558,22.7089027 12.0623365,12.0778278 C17.2135315,6.92663292 24.0593402,4.08970392 31.3415996,4.08970392 C38.6238589,4.08970392 45.4723618,6.92663292 50.6208626,12.0778278 C61.2519374,22.7089027 61.2519374,40.005279 50.6235567,50.639048 C45.4723618,55.7875488 38.6238589,58.6271719 31.3415996,58.6271719 C24.0593402,58.6271719 17.2135315,55.7902429 12.0623365,50.639048 Z M74.9300842,72.852229 L72.8367377,74.9455755 C71.799494,75.9855134 70.1129626,75.9828193 69.078413,74.9455755 L50.37839,56.2482467 C51.4695165,55.4103692 52.5310075,54.5239973 53.5197568,53.5352481 C54.5138943,52.5411106 55.3975721,51.4823137 56.2300612,50.3938813 L74.9300842,69.0939043 C75.967328,70.131148 75.967328,71.8149853 74.9300842,72.852229 Z" id="Shape" fill="#082551"></path>
            </g>
        </g>
    </g>
</svg>