<svg xmlns="http://www.w3.org/2000/svg" width="158.956" height="40.702" viewBox="0 0 158.956 40.702"><defs>
<style>.a,.b{fill:#fff;}.b{font-size:19px;font-family:Arial;font-weight:700;}.c{font-size:13px;font-family:CenturyGothic, Century Gothic;font-weight:400;}</style></defs><g transform="translate(0.01 0.003)"><g transform="translate(-0.01 -0.003)"><path class="a" d="M37.945,44.754a8.567,8.567,0,0,1-6.123-2.606L19.974,30.329A8.669,8.669,0,1,1,31.648,17.51a8.81,8.81,0,0,1,1.327-.9l1.777,3.208a4.9,4.9,0,0,0-1.131.859l-1.975,1.967L29.664,20.66a5,5,0,1,0-7.07,7.077L34.429,39.564a4.779,4.779,0,0,0,6.732.235L42.7,38.331,45.228,41l-1.549,1.468A8.31,8.31,0,0,1,37.945,44.754Z" transform="translate(-4.55 -4.052)"/><path class="a" d="M13.681,37.04,2.258,26.27A7.569,7.569,0,0,1,2.2,15.523L17,.73l2.6,2.6L4.806,18.121a3.9,3.9,0,0,0,0,5.513L16.2,34.368Z" transform="translate(0.01 -0.192)"/><path class="a" d="M25.952,44.743a8.428,8.428,0,0,1-5.792-2.3l-1.52-1.468L21.158,38.3l1.52,1.468a4.676,4.676,0,0,0,6.541-.073L41.09,27.865a5,5,0,0,0-3.524-8.545,5.088,5.088,0,0,0-2.416.61l-1.768-3.209A8.67,8.67,0,0,1,43.659,30.457L31.832,42.276a8.075,8.075,0,0,1-5.88,2.467Z" transform="translate(-4.949 -4.165)"/><path class="a" d="M53.236,37.2l-2.489-2.672L62.112,23.781a3.847,3.847,0,0,0,1.116-2.716,3.891,3.891,0,0,0-1.145-2.76L47.29,3.511,49.889.92,64.7,15.705a7.561,7.561,0,0,1,0,10.711Z" transform="translate(-12.566 -0.242)"/><path class="a" d="M17.338,8.75a1.843,1.843,0,0,1-1.3-3.135L21.126.535a1.838,1.838,0,1,1,2.6,2.6L18.652,8.207a1.835,1.835,0,0,1-1.314.543Z" transform="translate(-4.116 0.003)"/><path class="a" d="M52.748,8.221a1.821,1.821,0,0,1-1.292-.536l-4.4-4.4A1.838,1.838,0,1,1,49.687.718l4.4,4.4a1.835,1.835,0,0,1-1.343,3.1Z" transform="translate(-12.364 -0.041)"/><text class="b" transform="translate(59.956 19.193)"><tspan x="0" y="0">Hilma</tspan><tspan class="c"><tspan x="0" y="17">tech for impact</tspan></tspan></text></g></g></svg>