<?xml version="1.0" encoding="UTF-8"?>
<svg width="88px" height="88px" viewBox="0 0 88 88" version="1.1" xmlns="http://www.w3.org/2000/svg" xmlns:xlink="http://www.w3.org/1999/xlink">
    <title>noun_clock_3690327</title>
    <g id="מתחברים-זוכרים" stroke="none" stroke-width="1" fill="none" fill-rule="evenodd">
        <g id="דף-הבית" transform="translate(-1107.000000, -1734.000000)" fill-rule="nonzero">
            <g id="noun_clock_3690327" transform="translate(1107.534470, 1734.148065)">
                <g id="Group" transform="translate(0.341914, 0.000000)">
                    <path d="M42.7730797,0.18390786 C19.2517296,0.18390786 0.18390786,19.2517296 0.18390786,42.7730797 C0.18390786,66.2944299 19.2517296,85.3622516 42.7730797,85.3622516 C66.2944299,85.3622516 85.3622516,66.2944299 85.3622516,42.7730797 C85.3357478,19.2627166 66.2834429,0.21041165 42.7730797,0.18390786 Z M42.7730797,81.5753962 C21.3431521,81.5753962 3.97076323,64.2030074 3.97076323,42.7730797 C3.97076323,21.3431521 21.3431521,3.97076323 42.7730797,3.97076323 C64.2030074,3.97076323 81.5753962,21.3431521 81.5753962,42.7730797 C81.5509591,64.1928771 64.1928771,81.5509591 42.7730797,81.5753962 L42.7730797,81.5753962 Z" id="Shape" fill="#082551"></path>
                    <path d="M44.6665074,41.9890871 L44.6665074,23.7981321 C44.6665074,22.7524208 43.818791,21.9047044 42.7730797,21.9047044 C41.7273685,21.9047044 40.8796521,22.7524208 40.8796521,23.7981321 L40.8796521,42.7730797 C40.8796521,43.275202 41.0793363,43.756715 41.4344264,44.1117331 L53.4181195,56.0954263 C54.1574687,56.8347755 55.3561907,56.8347755 56.0955399,56.0954263 C56.8348891,55.3560771 56.8348891,54.1573551 56.0955399,53.4180059 L44.6665074,41.9890871 Z" id="Path" fill="#16B3AB"></path>
                    <path d="M41.4287461,13.1781044 C41.6123506,13.3455457 41.8234645,13.4800581 42.0528009,13.5757243 C42.2777101,13.6819581 42.5244308,13.7338693 42.7730797,13.7272742 C43.2761488,13.7291026 43.7594806,13.5316854 44.1174134,13.1781802 C44.2880175,13.0040552 44.4230721,12.7983671 44.5150332,12.5726052 C44.6195891,12.3406014 44.6713256,12.0882762 44.6665074,11.8338465 C44.6630508,11.7131786 44.6503912,11.5929503 44.6286389,11.4742089 C44.610465,11.3489608 44.572058,11.2274985 44.5149196,11.1145712 C44.4771457,10.9981518 44.4192588,10.8892541 44.3438863,10.792821 C44.2840623,10.6867307 44.207599,10.5909293 44.1174134,10.509072 C43.7616141,10.1511988 43.2778003,9.94997241 42.7731555,9.94997241 C42.2685107,9.94997241 41.7846968,10.1511988 41.4288976,10.509072 C41.3383948,10.5909091 41.2616064,10.6867349 41.201459,10.7928968 C41.1260865,10.8893298 41.0681996,10.9982275 41.0304257,11.114647 C40.9731848,11.2274581 40.9350695,11.3489894 40.9176342,11.4742846 C40.8954343,11.5929612 40.882771,11.7132246 40.8797657,11.8339223 C40.8842043,12.0873156 40.9352896,12.3377227 41.0304636,12.5726052 C41.1223429,12.7985458 41.2576596,13.0042644 41.4287461,13.1781044 Z" id="Path" fill="#16B3AB"></path>
                    <path d="M44.1174134,71.930749 C43.5627475,71.4126951 42.7603576,71.2581531 42.0529524,71.5331292 C41.5778726,71.7062397 41.203612,72.0805004 41.0305014,72.5555801 C40.9336598,72.7832248 40.8824093,73.027654 40.8796521,73.2750258 C40.8796521,74.3207371 41.7273685,75.1684535 42.7730797,75.1684535 C43.818791,75.1684535 44.6665074,74.3207371 44.6665074,73.2750258 C44.6729687,73.0266976 44.6210331,72.7803213 44.5148817,72.5557316 C44.4183552,72.3266005 44.2839932,72.1153284 44.1174134,71.930749 Z" id="Path" fill="#16B3AB"></path>
                    <path d="M13.1022916,40.9933713 C13.0021012,40.9189202 12.8942458,40.8553825 12.7805604,40.8038392 C12.6631257,40.763496 12.5429348,40.7316733 12.4209227,40.7086187 C11.8643697,40.5988099 11.2878437,40.7429973 10.8485078,41.1018751 C10.4091719,41.4607528 10.1528288,41.9969061 10.1493586,42.5641779 C10.1523155,42.6848787 10.1649792,42.805146 10.1872271,42.9238155 C10.2250957,43.0569424 10.2621122,43.1706617 10.3000186,43.2843809 C10.3573327,43.3971724 10.4137379,43.5108917 10.4710519,43.6061122 C10.537858,43.7128655 10.6208168,43.8086117 10.7169703,43.889937 C11.0638765,44.250761 11.5422149,44.4555748 12.0427484,44.4576055 C12.1695729,44.4546074 12.2959844,44.4419479 12.4208848,44.419737 C12.5455552,44.3995915 12.6666765,44.3616048 12.7805225,44.3069455 C12.8936167,44.2616958 13.0014872,44.2043515 13.1022537,44.1359122 C13.2056546,44.0642438 13.301135,43.9817751 13.3870821,43.8898991 C13.4832408,43.808579 13.5662003,43.712832 13.6330004,43.6060743 C13.6894057,43.5108538 13.7467197,43.3971346 13.8031249,43.2843431 C13.8409935,43.1706238 13.878862,43.0569045 13.9168442,42.9237776 C13.9390921,42.8051081 13.9517558,42.6848408 13.9547127,42.56414 C13.9528993,42.0581421 13.7484457,41.5739618 13.3870442,41.2198063 C13.3058272,41.1285432 13.2095025,41.0519459 13.1022916,40.9933713 L13.1022916,40.9933713 Z" id="Path" fill="#16B3AB"></path>
                    <path d="M71.7421446,43.2843052 C71.7985498,43.3970967 71.8558639,43.510816 71.9122691,43.6060364 C71.9791146,43.7130363 72.0624205,43.8088218 72.1591153,43.8898613 C72.3271721,44.0724719 72.5341244,44.2149741 72.7646713,44.3068319 C72.9995609,44.4020044 73.249974,44.4530896 73.5033732,44.4575298 C73.7506777,44.4548002 73.9950467,44.4036016 74.2226485,44.3068319 C74.453201,44.2149743 74.6601596,44.0724723 74.8282235,43.8898613 C74.9249183,43.8088218 75.0082242,43.7130363 75.0750697,43.6060364 C75.1314559,43.510816 75.1878611,43.3970967 75.2451752,43.2843052 C75.2830438,43.1705859 75.3209123,43.0568667 75.3588945,42.9237398 C75.3806948,42.8050052 75.3933548,42.6847733 75.396763,42.5641021 C75.3946106,42.0579926 75.1898372,41.5738301 74.8281856,41.2197685 C74.6551048,41.0432626 74.4494543,40.9019764 74.2226106,40.8037256 C73.7551082,40.6142041 73.2321738,40.6142041 72.7646713,40.8037256 C72.5378335,40.9019768 72.3321893,41.0432632 72.1591153,41.2197685 C71.8024979,41.5756386 71.6045265,42.060327 71.6100213,42.5641021 C71.6037727,42.6852237 71.6165506,42.8065761 71.6478898,42.9237398 C71.667779,43.0466503 71.6993401,43.1673849 71.7421446,43.2843052 L71.7421446,43.2843052 Z" id="Path" fill="#16B3AB"></path>
                </g>
            </g>
        </g>
    </g>
</svg>