<?xml version="1.0" encoding="UTF-8"?>
<svg width="98px" height="88px" viewBox="0 0 98 88" version="1.1" xmlns="http://www.w3.org/2000/svg" xmlns:xlink="http://www.w3.org/1999/xlink">
    <title>noun_edit_3697154</title>
    <g id="מתחברים-זוכרים" stroke="none" stroke-width="1" fill="none" fill-rule="evenodd">
        <g id="דף-הבית" transform="translate(-1357.000000, -2048.000000)" fill-rule="nonzero">
            <g id="noun_edit_3697154" transform="translate(1357.143786, 2048.240845)">
                <path d="M0.69299582,66.8188289 C0.714763693,66.8810051 0.73040157,66.9426808 0.758049378,67.0017294 C0.848999287,67.1966398 0.964344153,67.3809165 1.12084795,67.539672 C1.12485119,67.5438005 1.12747848,67.5490547 1.13160675,67.5531832 L19.6627273,86.0850543 C19.8388722,86.2611992 20.0496706,86.4014396 20.2832379,86.4986445 C20.5161796,86.5954742 20.7653845,86.6470166 21.0178421,86.6470166 L59.8992048,86.6470166 C63.9459091,86.6470166 67.238743,83.3533068 67.238743,79.3056018 L67.238743,50.781385 C67.3766063,50.699943 67.5223513,50.6296352 67.63632,50.5156663 L91.3602127,26.7917736 C91.3675939,26.7845177 91.3777271,26.782641 91.3851082,26.7752601 L94.184036,23.9792099 C95.584313,22.5750547 96.356073,20.7107709 96.356073,18.7295159 C96.356073,16.7473852 95.5786833,14.8783474 94.1690237,13.4676869 C91.3635906,10.6613782 86.4721914,10.6595015 83.6658827,13.4676869 L80.9283805,16.2043132 C80.907113,16.2237041 80.8793402,16.2299593 80.8586982,16.2506013 L67.238743,29.8704313 L67.238743,7.65953355 C67.238743,3.6119537 63.9459091,0.318243954 59.8992048,0.318243954 L7.90668056,0.318243954 C3.85997633,0.318243954 0.567267449,3.6119537 0.567267449,7.65953355 L0.567267449,66.1964419 C0.567267449,66.2386015 0.588660025,66.2737555 0.591287313,66.3151647 C0.602296178,66.488307 0.635948952,66.6549442 0.69299582,66.8188289 Z M19.102016,68.1121431 L19.102016,80.1063857 L7.10877417,68.1121431 L19.102016,68.1121431 Z M58.2977622,50.342524 L56.6009913,51.031716 L59.155468,44.7485469 L62.8835351,48.4776147 L58.2977622,50.342524 Z M66.2785781,46.4544501 L61.1761303,41.3513767 L66.6774063,35.8508514 C66.6781569,35.8501008 66.6784071,35.8489749 66.6791577,35.8482243 L82.2131876,20.3141943 L87.3168864,25.4170174 L66.2785781,46.4544501 Z M86.3749863,16.1766656 C87.7351052,14.8184232 90.1008014,14.8165467 91.4590439,16.1766656 C92.1456086,16.8642313 92.5245454,17.7707272 92.5245454,18.7295159 C92.5245454,19.6893055 92.1503625,20.592924 91.4740562,21.2711068 L90.0324952,22.7107912 L84.9363027,17.6144734 L86.3749863,16.1766656 Z M7.90668056,4.14977109 L59.8992048,4.14977109 C61.8337965,4.14977109 63.407216,5.72419128 63.407216,7.65953355 L63.407216,33.7019586 L57.1144137,39.9947607 C56.9351412,40.1732827 56.7954014,40.386458 56.6991971,40.6209009 C56.6976959,40.6245289 56.694068,40.6264054 56.6925666,40.6300335 L52.6381059,50.6052401 L51.8268135,52.6007568 L14.688635,52.6007568 C13.6306396,52.6007568 12.7728088,53.4585876 12.7728088,54.516583 C12.7728088,55.5745784 13.6306396,56.432284 14.688635,56.432284 L53.1173753,56.432284 C53.1446478,56.432284 53.1674165,56.4178972 53.1944388,56.4167711 C53.4047368,56.4085144 53.614159,56.3738607 53.8163255,56.2942954 C53.8232061,56.2915431 53.8307122,56.2929192 53.837593,56.2901669 L53.8534811,56.2836616 C53.8592358,56.2812846 53.8647405,56.2792831 53.8702449,56.2769061 L55.2568858,55.7135676 L57.5377623,54.7874306 L63.407216,52.4052209 L63.407216,79.3056018 C63.407216,81.2410691 61.8337965,82.8153642 59.899205,82.8153642 L22.9335435,82.8153642 L22.9335435,66.1964419 L22.9335435,66.195441 C22.9335435,65.1374457 22.0758379,64.2797401 21.0178425,64.2797401 L4.39879458,64.2797401 L4.39879458,7.65953355 C4.39879458,5.72419148 5.97221411,4.14977109 7.90668056,4.14977109 Z" id="Shape" fill="#082551"></path>
                <path d="M26.1833418,17.3263615 L53.1173755,17.3263615 C54.1753709,17.3263615 55.0330764,16.4685307 55.0330764,15.4105353 C55.0330764,14.352665 54.1753709,13.4948344 53.1173755,13.4948344 L26.1833418,13.4948344 C25.1253464,13.4948344 24.2675156,14.3526652 24.2675156,15.4105353 C24.2675156,16.4685307 25.1253464,17.3263615 26.1833418,17.3263615 Z" id="Path" fill="#16B3AB"></path>
                <path d="M14.688635,30.3617107 L53.1173753,30.3617107 C54.1753706,30.3617107 55.0330762,29.5038799 55.0330762,28.4458846 C55.0330762,27.3878892 54.1753706,26.5301836 53.1173753,26.5301836 L14.688635,26.5301836 C13.6306396,26.5301836 12.7728088,27.3878892 12.7728088,28.4458846 C12.7728088,29.5038799 13.6306396,30.3617107 14.688635,30.3617107 Z" id="Path" fill="#16B3AB"></path>
                <path d="M14.688635,43.39706 L53.1173753,43.39706 C54.1753706,43.39706 55.0330762,42.5392292 55.0330762,41.4812338 C55.0330762,40.4232384 54.1753706,39.5654076 53.1173753,39.5654076 L14.688635,39.5654076 C13.6306396,39.5654076 12.7728088,40.4232384 12.7728088,41.4812338 C12.7728088,42.5392292 13.6306396,43.39706 14.688635,43.39706 Z" id="Path" fill="#16B3AB"></path>
            </g>
        </g>
    </g>
</svg>