<svg xmlns="http://www.w3.org/2000/svg" width="26.442" height="28.813" viewBox="0 0 26.442 28.813"><defs><style>.a,.b{fill:#fff;}.b{stroke:#fff;stroke-linecap:round;stroke-miterlimit:10;}</style></defs><g transform="translate(-1.27 -1.5)"><g transform="translate(1.709 2)"><path class="a" d="M2.308,32.649l-.5-.235a.147.147,0,0,1-.076-.21l.237-.5a.141.141,0,0,1,.21-.063l.42.191H5.34a.748.748,0,0,1,.75.752v4.253a.6.6,0,0,1-.6.6H2.5a.21.21,0,0,1-.193-.21Zm2.94.1c0-.042-.021-.063-.076-.063H3.133v3.9H5.17c.055,0,.076-.021.076-.076Z" transform="translate(-1.709 -25.393)"/><path class="a" d="M31.09,36.069a.16.16,0,0,1-.237,0l-.34-.332a.149.149,0,0,1,0-.21c.664-.7.653-.945.653-1.93a.067.067,0,0,0-.074-.076H29.482a.166.166,0,0,1-.162-.162v-.54a.158.158,0,0,1,.162-.151h1.962a.55.55,0,0,1,.569.538v.664A2.678,2.678,0,0,1,31.09,36.069Z" transform="translate(-23.521 -26.227)"/><path class="a" d="M49.9,32.85a.21.21,0,0,1,.193-.21h2.863a1.05,1.05,0,0,1,1.05,1.05v4.394a.166.166,0,0,1-.16.162h-.538a.155.155,0,0,1-.149-.162V33.654a.16.16,0,0,0-.172-.16H50.746v4.589a.166.166,0,0,1-.162.162H50.06a.164.164,0,0,1-.16-.162Z" transform="translate(-39.779 -26.205)"/><path class="a" d="M79.655,35.394l1.275,1.89a.143.143,0,0,1-.032.21l-.439.311a.147.147,0,0,1-.21-.032l-2.117-3.121c-.418.3-.523.741-.523,1.468v1.491a.158.158,0,0,1-.151.162h-.527a.166.166,0,0,1-.162-.162V36.121A2.366,2.366,0,0,1,77.693,34l-.956-1.4a.149.149,0,0,1,.032-.21l.441-.311a.145.145,0,0,1,.21.034l1.705,2.52.964-2.275c.065-.16.128-.172.258-.172H80.8a.176.176,0,0,1,.168.252Z" transform="translate(-60.957 -25.733)"/><path class="a" d="M107.265,38.269h-.525a.166.166,0,0,1-.162-.162V34.237a.72.72,0,0,0-.729-.718h-2.31a.164.164,0,0,1-.16-.162v-.536a.155.155,0,0,1,.16-.151h2.31a1.571,1.571,0,0,1,1.577,1.567v3.871A.166.166,0,0,1,107.265,38.269Zm-3-1.959v1.8a.158.158,0,0,1-.151.162h-.536a.166.166,0,0,1-.162-.162V36.284c0-.258.107-1.287.107-1.287a.145.145,0,0,1,.172-.139l.525.055a.141.141,0,0,1,.139.17S104.264,36.07,104.264,36.309Z" transform="translate(-82.027 -26.228)"/><path class="a" d="M28.883,81.792h-.525a.16.16,0,0,1-.162-.16V77.172c0-.023,0-.034-.032-.044l-1.233-.311a.153.153,0,0,1-.107-.193l.128-.494a.158.158,0,0,1,.21-.118l1.533.4a.42.42,0,0,1,.355.462v4.761a.166.166,0,0,1-.168.16Z" transform="translate(-21.544 -60.46)"/><path class="a" d="M46.542,82.517h-2.23a.166.166,0,0,1-.162-.16V81.83a.164.164,0,0,1,.162-.16H46.2c.063,0,.084-.021.084-.076V77.831c0-.042-.032-.065-.084-.065h-.947a.162.162,0,0,1-.16-.16v-.538a.155.155,0,0,1,.16-.149h1.136a.754.754,0,0,1,.752.75v4.247a.6.6,0,0,1-.6.6Z" transform="translate(-35.237 -61.185)"/><path class="a" d="M67.534,74.83a.149.149,0,0,1-.21.084l-.546-.191a.164.164,0,0,1-.086-.227l1.787-4.375c.021-.053,0-.1-.055-.1H65.552a.164.164,0,0,1-.162-.16V67.28a.164.164,0,0,1,.162-.16h.525a.164.164,0,0,1,.162.16v1.89H68.9a.575.575,0,0,1,.225.042.584.584,0,0,1,.29.741Z" transform="translate(-52.016 -53.444)"/><path class="a" d="M92.07,76.915c.118,0,.183.042.183.162l.063,2.272c.666-.118.89-.42.89-1.447v-.8c0-.118.055-.183.172-.183h.42a.172.172,0,0,1,.193.183l-.021.857c-.034,1.416-.4,1.77-1.651,2.048l.053,1.749c2.027-.237,2.552-1.416,2.552-3.936V77.1c0-.118.055-.183.172-.183h.494a.172.172,0,0,1,.193.183l-.023.718C95.687,80.5,95.2,82.373,92,82.588a.323.323,0,0,1-.384-.321L91.44,77.1c0-.118.053-.183.172-.183Z" transform="translate(-72.595 -61.18)"/><line class="b" x2="25.181" transform="translate(0.322 0)"/><line class="b" x2="25.391" transform="translate(0.061 27.813)"/></g></g></svg>