<svg xmlns="http://www.w3.org/2000/svg" width="23.5" height="39.919" viewBox="0 0 23.5 39.919"><defs><style>.a{fill:none;stroke:#00726b;stroke-miterlimit:10;stroke-width:1.5px;}</style></defs><g transform="translate(-6.65 -6.25)"><g transform="translate(7.4 7)"><path class="a" d="M18.382,29.936c0,.072-.036.108-.036.18a2.871,2.871,0,0,1-.792,1.4,18.092,18.092,0,0,1-1.764,1.548c-.216.144-.4.324-.612.468L14.529,33c-.576-.468-1.116-.972-1.692-1.44a2.523,2.523,0,0,1-.684-.936,5,5,0,0,1-.216-.684V29.5c.072-.18.108-.4.18-.576a1.522,1.522,0,0,1,1.62-.828,1.906,1.906,0,0,1,.828.468c.216.252.432.5.648.792.108-.144.18-.288.288-.432a1.887,1.887,0,0,1,.36-.4,1.61,1.61,0,0,1,.792-.468,1.592,1.592,0,0,1,1.692,1.08,1.051,1.051,0,0,1,.072.324A2.215,2.215,0,0,0,18.382,29.936Zm3.025-9.542a7.021,7.021,0,1,0-5.977,0A10.985,10.985,0,0,0,7.4,30.98V45.419h22V30.98a10.953,10.953,0,0,0-7.993-10.586Z" transform="translate(-7.4 -7)"/></g></g></svg>