<?xml version="1.0" encoding="UTF-8"?>
<svg width="81px" height="170px" viewBox="0 0 81 170" version="1.1" xmlns="http://www.w3.org/2000/svg" xmlns:xlink="http://www.w3.org/1999/xlink">
    <title>Shape</title>
    <g id="מתחברים-זוכרים" stroke="none" stroke-width="1" fill="none" fill-rule="evenodd">
        <g id="דף-הבית" transform="translate(-529.000000, -1772.000000)" fill="#082551" fill-rule="nonzero">
            <g id="Group-8" transform="translate(413.990392, 1772.899775)">
                <path d="M155.138958,168.764268 C169.964932,168.764268 195.060588,165.787399 195.060588,154.626716 L195.060588,60.7231587 C195.060588,51.2723727 177.073623,47.7012891 162.556022,46.8261686 C166.868533,44.7295704 169.979739,40.838525 170.905719,35.8232133 C172.866263,25.2084613 162.249794,4.12659949 157.999087,0.923117896 C156.663445,-0.0811889386 155.056553,-0.280333827 153.71061,0.3960715 C153.051373,0.723973359 151.526886,1.75574877 151.526886,4.26565744 C151.526886,11.4125459 147.825543,17.1654222 144.560258,22.2401767 C141.761933,26.5904567 139.118116,30.7003897 139.118116,35.1845772 C139.118116,40.225211 142.504004,44.5703405 147.431331,46.8441944 C132.965448,47.7495727 115.217327,51.3352492 115.217327,60.7231583 L115.217327,154.626716 C115.217327,165.787399 140.312984,168.764268 155.138958,168.764268 Z M155.138958,161.732403 C135.265698,161.732403 122.980534,156.9907 122.249193,154.626716 L122.249193,69.3046183 C130.775716,73.5156256 145.23323,74.8607103 155.138958,74.8607103 C165.044901,74.8607103 179.502629,73.5156256 188.029367,69.3046183 L188.03559,154.554612 C187.297381,156.9907 175.012218,161.732403 155.138958,161.732403 Z M150.476227,26.0445255 C152.955234,22.1869567 155.856565,17.6804511 157.418821,12.2365926 C160.88325,18.8409838 164.969149,29.2411401 163.990593,34.5459407 C163.414619,37.662082 160.834537,41.2533375 155.524371,41.4702938 C155.391751,41.4550575 155.275655,41.3923958 155.138958,41.3923958 C154.977582,41.3923958 154.839597,41.4632124 154.684016,41.4842426 C150.024718,41.3423951 146.149982,38.5258289 146.149982,35.1845772 C146.149982,32.7656566 148.155162,29.6514467 150.476227,26.0445255 Z M151.623025,53.6713358 L151.623025,60.7231587 C151.623025,62.6648188 153.195581,64.2390914 155.138958,64.2390914 C157.082335,64.2390914 158.654891,62.6648188 158.654891,60.7231587 L158.654891,53.670692 C176.26567,54.1794981 187.111971,58.4179736 188.011555,60.7231587 C187.057034,63.1798477 174.819941,67.8288449 155.138958,67.8288449 C135.297029,67.8288449 123.022381,63.1028084 122.249193,60.8068509 L122.249193,60.7832453 C122.978818,58.4913652 133.85602,54.1846483 151.623025,53.6713358 Z" id="Shape"></path>
            </g>
        </g>
    </g>
</svg>