<svg xmlns="http://www.w3.org/2000/svg" width="60.104" height="54" viewBox="0 0 60.104 54"><defs><style>.a{fill:#fff;}</style></defs><g transform="translate(0 -26)"><path class="a" d="M55.7,26H4.4A4.407,4.407,0,0,0,0,30.4V67.38a4.407,4.407,0,0,0,4.4,4.4H22.311l-1.06,3.709a4.07,4.07,0,0,1-3.643,2.748H11.857a.88.88,0,0,0,0,1.761H48.248a.88.88,0,0,0,0-1.761H42.5a4.07,4.07,0,0,1-3.643-2.748l-1.06-3.709H55.7a4.407,4.407,0,0,0,4.4-4.4V30.4A4.407,4.407,0,0,0,55.7,26ZM37.16,75.975a5.372,5.372,0,0,0,1.351,2.264H21.593a5.372,5.372,0,0,0,1.351-2.264l1.2-4.193h11.82ZM58.343,67.38A2.644,2.644,0,0,1,55.7,70.022H4.4A2.644,2.644,0,0,1,1.761,67.38V30.4A2.644,2.644,0,0,1,4.4,27.761H55.7A2.644,2.644,0,0,1,58.343,30.4Z" transform="translate(0 0)"/><path class="a" d="M83.061,90.337V56.88a.88.88,0,0,0-.88-.88H30.88a.88.88,0,0,0-.88.88V71.848a.88.88,0,0,0,1.761,0V57.761H81.3v31.7H31.761V75.37a.88.88,0,0,0-1.761,0V90.337a.88.88,0,0,0,.88.88h51.3A.88.88,0,0,0,83.061,90.337Z" transform="translate(-26.478 -26.478)"/><circle class="a" cx="0.88" cy="0.88" r="0.88" transform="translate(54.902 66.497)"/><circle class="a" cx="0.88" cy="0.88" r="0.88" transform="translate(51.38 66.497)"/></g></svg>