<svg xmlns="http://www.w3.org/2000/svg" viewBox="0 0 88 88" width="88" height="88">
	<style>
		tspan { white-space:pre }
		.shp0 { fill: none;stroke: #ffffff } 
		.shp1 { fill: none;stroke: #ffffff;stroke-width: 10 } 
	</style>
	<g id="Layer">
		<path id="Layer" class="shp0" d="M81.43 21.22C84.13 25.89 85.88 31.04 86.58 36.39C87.28 41.73 86.93 47.16 85.53 52.37C84.14 57.57 81.73 62.45 78.45 66.73C75.17 71 71.08 74.59 66.41 77.29L66.41 77.29" />
		<path id="Layer" class="shp0" d="M25.37 6.2C30.04 3.51 35.19 1.76 40.53 1.06C45.88 0.35 51.31 0.71 56.51 2.1C61.72 3.5 66.6 5.9 70.87 9.19C75.15 12.47 78.74 16.56 81.43 21.22L81.43 21.22" />
		<path id="Layer" class="shp1" d="M10.35 62.26C7.66 57.6 5.91 52.44 5.2 47.1C4.5 41.76 4.85 36.33 6.25 31.12C7.64 25.92 10.05 21.04 13.33 16.76C16.61 12.48 20.7 8.9 25.37 6.2L25.37 6.2" />
		<path id="Layer" class="shp1" d="M66.41 77.29C61.74 79.98 56.59 81.73 51.25 82.43C45.91 83.14 40.48 82.78 35.27 81.39C30.06 79.99 25.18 77.58 20.91 74.3C16.63 71.02 13.04 66.93 10.35 62.26" />
	</g>
</svg>