<svg xmlns="http://www.w3.org/2000/svg" viewBox="0 0 88 88" width="88" height="88">
	<style>
		tspan { white-space:pre }
		.shp0 { fill: none;stroke: #ffffff } 
		.shp1 { fill: none;stroke: #ffffff;stroke-width: 10 } 
	</style>
	<g id="Layer">
		<path id="Layer" class="shp0" d="M12.73 75.13C8.91 71.32 5.89 66.79 3.83 61.81C1.77 56.84 0.7 51.5 0.7 46.11C0.7 40.72 1.77 35.38 3.83 30.4C5.89 25.42 8.91 20.9 12.72 17.09L12.72 17.09" />
		<path id="Layer" class="shp0" d="M70.76 75.13C66.95 78.94 62.43 81.96 57.45 84.03C52.47 86.09 47.13 87.15 41.74 87.15C36.36 87.15 31.02 86.09 26.04 84.02C21.06 81.96 16.54 78.94 12.73 75.13L12.73 75.13" />
		<path id="Layer" class="shp1" d="M70.76 17.09C74.58 20.9 77.6 25.42 79.66 30.4C81.72 35.38 82.78 40.72 82.78 46.11C82.78 51.5 81.72 56.84 79.66 61.81C77.6 66.79 74.58 71.32 70.76 75.13L70.76 75.13" />
		<path id="Layer" class="shp1" d="M12.72 17.09C16.54 13.28 21.06 10.26 26.04 8.19C31.02 6.13 36.35 5.07 41.74 5.07C47.13 5.07 52.47 6.13 57.45 8.19C62.43 10.26 66.95 13.28 70.76 17.09" />
	</g>
</svg>