<svg xmlns="http://www.w3.org/2000/svg" width="56.8" height="60.586" viewBox="0 0 56.8 60.586"><defs><style>.a{fill:#fff;}</style></defs><g transform="translate(-16)"><g transform="translate(27.833 22.01)"><path class="a" d="M117.183,186a1.183,1.183,0,1,0,1.183,1.183A1.184,1.184,0,0,0,117.183,186Z" transform="translate(-116 -186)"/></g><g transform="translate(60.966 4.733)"><path class="a" d="M397.183,40a1.183,1.183,0,0,0,0,2.367,3.554,3.554,0,0,1,3.55,3.55,1.183,1.183,0,1,0,2.367,0A5.923,5.923,0,0,0,397.183,40Z" transform="translate(-396 -40)"/></g><g transform="translate(60.966 44.02)"><path class="a" d="M397.183,372a1.183,1.183,0,0,0,0,2.367,3.554,3.554,0,0,1,3.55,3.55,1.183,1.183,0,0,0,2.367,0A5.923,5.923,0,0,0,397.183,372Z" transform="translate(-396 -372)"/></g><g transform="translate(16)"><path class="a" d="M62.15,39.287a10.684,10.684,0,0,0-8.577,4.339l-12.73-7.892a13.029,13.029,0,0,0,0-10.881l12.73-7.892a10.623,10.623,0,1,0-1.184-2.051L39.661,22.8a13.017,13.017,0,1,0,0,14.984l12.728,7.891a10.65,10.65,0,1,0,9.761-6.389Zm0-36.92a8.286,8.286,0,1,1-8.283,8.283A8.293,8.293,0,0,1,62.15,2.367ZM38.266,35.577a10.65,10.65,0,1,1,0-10.568h0a10.665,10.665,0,0,1,0,10.567ZM62.15,58.22a8.283,8.283,0,1,1,8.283-8.283A8.293,8.293,0,0,1,62.15,58.22Z" transform="translate(-16)"/></g><g transform="translate(27.833 23.591)"><path class="a" d="M122.391,199.624a1.183,1.183,0,0,0-1.49,1.839,5.914,5.914,0,0,1-3.718,10.516,1.183,1.183,0,1,0,0,2.367,8.281,8.281,0,0,0,5.207-14.722Z" transform="translate(-116 -199.36)"/></g></g></svg>