<svg xmlns="http://www.w3.org/2000/svg" width="50.248" height="56.705" viewBox="0 0 50.248 56.705"><defs><style>.a{fill:#fff;}</style></defs><g transform="translate(0 0)"><g transform="translate(0 0)"><path class="a" d="M75.561,23.781l-2-4.541c-.116-.264-.245-.526-.382-.777a6.747,6.747,0,0,0-8.611-2.932l-.95.413-1.787-4.065a5.527,5.527,0,0,0-7.305-2.827l-2.7,1.171a4.636,4.636,0,0,0-1.734-1.6,5.453,5.453,0,0,0-4.824.186l-2.008.883-2.444-5.56A6.669,6.669,0,0,0,36.057.123,6.006,6.006,0,0,0,30.721,1.6,6.683,6.683,0,0,0,29.2,9.2l9.112,20.857c-2.738-.666-5.92-.138-7.768,1.512a1.133,1.133,0,0,0-.21.17,5.79,5.79,0,0,0-1.741,4.393c.1,2.034,1.273,4.046,3.382,5.819l.028.023,18.411,14.49a1.129,1.129,0,0,0,1.153.146L77.939,45.014a1.129,1.129,0,0,0,.673-.964l.144-2.3A38.834,38.834,0,0,0,75.561,23.781Zm.94,17.831-.1,1.612L51.275,54.268,33.411,40.208a6.234,6.234,0,0,1-2.566-4.192,3.467,3.467,0,0,1,.927-2.511,1.142,1.142,0,0,0,.123-.11c1.649-1.7,5.757-1.82,7.891-.246l4.583,4.4a1.13,1.13,0,1,0,1.565-1.629l-4.478-4.3L31.266,8.292a4.4,4.4,0,0,1,1.015-5.055,3.8,3.8,0,0,1,3.333-.9,4.387,4.387,0,0,1,3.133,2.7l7.708,17.534a1.13,1.13,0,0,0,2.068-.909l-4.355-9.906,2.008-.883a3.37,3.37,0,0,1,2.876-.248,2.919,2.919,0,0,1,1.24,1.5h0l4.546,10.34a1.13,1.13,0,0,0,2.068-.909l-4.089-9.3,2.615-1.133.013-.006a3.268,3.268,0,0,1,4.32,1.672l5.4,12.289a1.13,1.13,0,0,0,2.068-.909L64.53,18.012l.942-.41A4.462,4.462,0,0,1,71.2,19.547c.106.194.206.4.3.6l2,4.542A36.568,36.568,0,0,1,76.5,41.611Z" transform="translate(-28.582 0)"/><path class="a" d="M390,366.027l-1.31.574a1.129,1.129,0,1,0,.907,2.069l1.31-.574a1.129,1.129,0,1,0-.907-2.069Z" transform="translate(-347.413 -324.598)"/><path class="a" d="M243.674,386.8l-13.987,6.134a1.129,1.129,0,1,0,.907,2.069l13.987-6.135a1.129,1.129,0,1,0-.907-2.069Z" transform="translate(-206.372 -343.027)"/></g></g></svg>