<svg xmlns="http://www.w3.org/2000/svg" width="54.8" height="54.8" viewBox="0 0 54.8 54.8"><defs><style>.a{fill:#fff;}</style></defs><path class="a" d="M46.775,8.025A27.4,27.4,0,0,0,8.025,46.775,27.4,27.4,0,0,0,46.775,8.025ZM27.4,52.617A25.217,25.217,0,1,1,52.617,27.4,25.245,25.245,0,0,1,27.4,52.617Z"/><g transform="translate(5.192 5.192)"><path class="a" d="M70.721,48.514A22.207,22.207,0,1,0,92.929,70.721,22.232,22.232,0,0,0,70.721,48.514Zm0,42.232A20.024,20.024,0,1,1,90.746,70.721,20.047,20.047,0,0,1,70.721,90.746Z" transform="translate(-48.514 -48.514)"/></g><g transform="translate(14.151 14.151)"><path class="a" d="M134.323,132.781l-.245-.245a1.092,1.092,0,0,0-1.544,1.544l.245.245a1.092,1.092,0,1,0,1.544-1.544Z" transform="translate(-132.215 -132.217)"/></g><g transform="translate(9.116 26.308)"><path class="a" d="M86.606,245.8H86.26a1.092,1.092,0,1,0,0,2.183h.346a1.092,1.092,0,1,0,0-2.183Z" transform="translate(-85.168 -245.801)"/></g><g transform="translate(14.151 38.221)"><path class="a" d="M134.324,357.418a1.092,1.092,0,0,0-1.544,0l-.245.245a1.092,1.092,0,0,0,1.544,1.544l.245-.245A1.092,1.092,0,0,0,134.324,357.418Z" transform="translate(-132.216 -357.099)"/></g><g transform="translate(26.308 43.155)"><path class="a" d="M246.893,403.2a1.092,1.092,0,0,0-1.092,1.092v.346a1.092,1.092,0,1,0,2.183,0v-.346A1.092,1.092,0,0,0,246.893,403.2Z" transform="translate(-245.801 -403.2)"/></g><g transform="translate(38.22 38.221)"><path class="a" d="M359.205,357.664l-.245-.245a1.092,1.092,0,1,0-1.544,1.544l.245.245a1.092,1.092,0,0,0,1.544-1.544Z" transform="translate(-357.097 -357.099)"/></g><g transform="translate(43.155 26.308)"><path class="a" d="M404.638,245.8h-.346a1.092,1.092,0,1,0,0,2.183h.346a1.092,1.092,0,1,0,0-2.183Z" transform="translate(-403.2 -245.801)"/></g><g transform="translate(38.22 14.151)"><path class="a" d="M359.206,132.536a1.092,1.092,0,0,0-1.544,0l-.245.245a1.092,1.092,0,0,0,1.544,1.544l.245-.245A1.092,1.092,0,0,0,359.206,132.536Z" transform="translate(-357.098 -132.217)"/></g><g transform="translate(26.308 9.115)"><path class="a" d="M246.893,85.167a1.092,1.092,0,0,0-1.092,1.092v.491a1.092,1.092,0,1,0,2.183,0v-.491A1.092,1.092,0,0,0,246.893,85.167Z" transform="translate(-245.801 -85.167)"/></g><g transform="translate(23.77 13.209)"><path class="a" d="M235.408,136.51h-6.23a3.646,3.646,0,0,0-2.371-2.37V124.5a1.092,1.092,0,1,0-2.183,0v9.637a3.63,3.63,0,1,0,4.554,4.554h6.23a1.092,1.092,0,0,0,0-2.183Zm-9.693,2.538a1.447,1.447,0,1,1,1.447-1.447A1.448,1.448,0,0,1,225.715,139.049Z" transform="translate(-222.085 -123.411)"/></g></svg>