<svg xmlns="http://www.w3.org/2000/svg" width="56.705" height="56.705" viewBox="0 0 56.705 56.705"><defs><style>.a{fill:#fff;}</style></defs><g transform="translate(33.225 21.043)"><path class="a" d="M301.107,190a1.108,1.108,0,1,0,1.108,1.108A1.108,1.108,0,0,0,301.107,190Z" transform="translate(-300 -190)"/></g><path class="a" d="M55.407,49.143,40.624,34.359A21.951,21.951,0,0,0,44.3,22.15,22.15,22.15,0,1,0,22.15,44.3a21.953,21.953,0,0,0,12.209-3.677l4.086,4.086,0,0,10.7,10.7a4.43,4.43,0,1,0,6.264-6.264ZM33.839,38.29h0a19.955,19.955,0,1,1,4.452-4.452A20.032,20.032,0,0,1,33.839,38.29Zm2.324,1a22.224,22.224,0,0,0,3.132-3.132L42.436,39.3A26.883,26.883,0,0,1,39.3,42.436ZM53.841,53.841a2.213,2.213,0,0,1-3.132,0l-9.834-9.834a29.1,29.1,0,0,0,3.132-3.132l9.835,9.835a2.213,2.213,0,0,1,0,3.131Z"/><g transform="translate(4.43 4.43)"><path class="a" d="M57.72,40A17.72,17.72,0,1,0,75.44,57.72,17.74,17.74,0,0,0,57.72,40Zm0,33.225A15.505,15.505,0,1,1,73.225,57.72,15.523,15.523,0,0,1,57.72,73.225Z" transform="translate(-40 -40)"/></g><g transform="translate(21.043 8.86)"><path class="a" d="M203.519,88.536A13.311,13.311,0,0,0,191.108,80a1.108,1.108,0,0,0,0,2.215,11.151,11.151,0,0,1,10.344,7.115,1.108,1.108,0,1,0,2.068-.795Z" transform="translate(-190 -80)"/></g></svg>