<svg xmlns="http://www.w3.org/2000/svg" width="13.48" height="22.644" viewBox="0 0 13.48 22.644"><defs><style>.a{fill:none;stroke:#0a2d63;stroke-miterlimit:10;stroke-width:1.2px;}</style></defs><g transform="translate(0.6 0.6)"><g transform="translate(0 0)"><path class="a" d="M13.53,19.8c0,.04-.02.06-.02.1a1.6,1.6,0,0,1-.442.784,10.1,10.1,0,0,1-.985.864c-.121.08-.221.181-.342.261l-.362-.3c-.322-.261-.623-.543-.945-.8a1.408,1.408,0,0,1-.382-.523,2.792,2.792,0,0,1-.121-.382v-.241c.04-.1.06-.221.1-.322a.849.849,0,0,1,.9-.462,1.064,1.064,0,0,1,.462.261c.121.141.241.281.362.442.06-.08.1-.161.161-.241a1.053,1.053,0,0,1,.2-.221.9.9,0,0,1,.442-.261.889.889,0,0,1,.945.6.587.587,0,0,1,.04.181A1.236,1.236,0,0,0,13.53,19.8Zm1.688-5.326a3.919,3.919,0,1,0-3.336,0A6.131,6.131,0,0,0,7.4,20.385v8.059H19.68V20.385a6.114,6.114,0,0,0-4.462-5.909Z" transform="translate(-7.4 -7)"/></g></g></svg>