<?xml version="1.0" encoding="UTF-8"?>
<svg xmlns="http://www.w3.org/2000/svg" xmlns:xlink="http://www.w3.org/1999/xlink" viewBox="0 0 24 24" width="24px" height="24px">
<g id="surface51130495">
<path style=" stroke:none;fill-rule:nonzero;fill:rgb(3.921569%,17.647059%,38.82353%);fill-opacity:1;" d="M 11.929688 4.25 C 8.753906 4.25 5.800781 4.476562 4.117188 4.828125 C 4.113281 4.828125 4.109375 4.828125 4.105469 4.832031 C 2.835938 5.117188 1.644531 6.023438 1.390625 7.445312 C 1.390625 7.449219 1.390625 7.449219 1.390625 7.453125 C 1.199219 8.601562 1 10.09375 1 12.25 C 1 14.402344 1.199219 15.855469 1.441406 17.0625 C 1.699219 18.445312 2.867188 19.382812 4.15625 19.667969 C 4.160156 19.671875 4.167969 19.671875 4.171875 19.671875 C 5.929688 20.019531 8.800781 20.25 11.976562 20.25 C 15.152344 20.25 18.019531 20.019531 19.777344 19.671875 C 19.785156 19.671875 19.792969 19.671875 19.796875 19.667969 C 21.066406 19.382812 22.261719 18.476562 22.511719 17.050781 C 22.511719 17.050781 22.515625 17.046875 22.515625 17.042969 C 22.703125 15.871094 22.953125 14.378906 23 12.21875 C 23 12.214844 23 12.207031 23 12.203125 C 23 10.042969 22.753906 8.539062 22.511719 7.347656 C 22.257812 5.964844 21.085938 5.023438 19.796875 4.734375 C 19.777344 4.730469 19.757812 4.726562 19.738281 4.726562 C 18.023438 4.484375 15.105469 4.25 11.929688 4.25 Z M 11.929688 5.75 C 15.007812 5.75 17.863281 5.980469 19.484375 6.207031 C 20.28125 6.390625 20.914062 6.945312 21.039062 7.621094 C 21.039062 7.625 21.039062 7.628906 21.039062 7.632812 C 21.273438 8.78125 21.5 10.144531 21.5 12.191406 C 21.453125 14.246094 21.226562 15.621094 21.035156 16.792969 C 20.90625 17.523438 20.296875 18.015625 19.476562 18.203125 C 17.902344 18.511719 15.070312 18.75 11.976562 18.75 C 8.878906 18.75 6.046875 18.511719 4.476562 18.203125 C 3.675781 18.019531 3.039062 17.460938 2.917969 16.785156 C 2.914062 16.78125 2.914062 16.777344 2.914062 16.773438 C 2.683594 15.636719 2.5 14.3125 2.5 12.25 C 2.5 10.1875 2.683594 8.8125 2.867188 7.707031 C 2.996094 6.976562 3.609375 6.480469 4.429688 6.296875 C 5.886719 5.992188 8.828125 5.75 11.929688 5.75 Z M 10.230469 8.011719 C 9.335938 8.039062 8.5 8.761719 8.5 9.742188 L 8.5 14.257812 C 8.5 15.566406 9.984375 16.414062 11.121094 15.769531 L 15.113281 13.511719 C 16.257812 12.867188 16.257812 11.132812 15.113281 10.484375 L 11.121094 8.230469 C 10.835938 8.070312 10.527344 8.003906 10.230469 8.011719 Z M 10.234375 9.492188 C 10.28125 9.492188 10.332031 9.507812 10.382812 9.535156 L 14.375 11.792969 C 14.578125 11.90625 14.578125 12.09375 14.375 12.207031 L 10.382812 14.464844 C 10.179688 14.578125 10 14.472656 10 14.257812 L 10 9.742188 C 10 9.636719 10.046875 9.554688 10.117188 9.515625 C 10.148438 9.496094 10.191406 9.488281 10.238281 9.492188 Z M 10.234375 9.492188 "/>
</g>
</svg>
