<svg xmlns="http://www.w3.org/2000/svg" width="205" height="46.067" viewBox="0 0 205 46.067"><defs><style>.a{fill:#5190cd;fill-rule:evenodd;}</style></defs><path class="a" d="M166.9,13.806a9.958,9.958,0,0,1,1.126,4.621l.115,2.3V36.854l.115,2.3a7.077,7.077,0,0,0,6.8,6.8l2.3.115V20.73l.115-2.3a10.042,10.042,0,0,1,1.136-4.638,9.217,9.217,0,0,1,15.942.029,10.1,10.1,0,0,1,1.119,4.609l.115,2.3V36.854l.115,2.3a7.051,7.051,0,0,0,6.8,6.8l2.3.115V18.427A18.427,18.427,0,0,0,172.753,6.238a18.432,18.432,0,0,0-24.14-3.08C146.821,1.165,142.809,0,140.505,0V46.067l2.3-.115a6.952,6.952,0,0,0,6.795-6.794l.115-2.3V20.73l.115-2.3a10.054,10.054,0,0,1,1.13-4.629,9.217,9.217,0,0,1,15.94.008ZM131.456,6.747A23.033,23.033,0,1,1,115.154,0a23.033,23.033,0,0,1,16.3,6.747Zm-6.514,6.514a13.82,13.82,0,1,1-19.545,0,13.821,13.821,0,0,1,19.545,0ZM66.812,0a23.033,23.033,0,1,1-.029,0ZM76.57,13.261a13.821,13.821,0,1,1-19.545,0A13.821,13.821,0,0,1,76.57,13.261ZM9.213,45.952a7.043,7.043,0,0,1-6.795-6.8l-.115-2.3,27.64-27.64H9.213L6.907,9.1A7.147,7.147,0,0,1,.115,2.3L0,0,34.551,0l2.3.113a6.965,6.965,0,0,1,6.795,6.8l.115,2.3-27.64,27.64h20.73l2.3.115a7.113,7.113,0,0,1,6.795,6.8l.115,2.3H11.517Z"/></svg>