<svg xmlns="http://www.w3.org/2000/svg" width="17.343" height="30.418" viewBox="0 0 17.343 30.418"><defs><style>.a{fill:#f5c508;}</style></defs><g transform="translate(-110.036)"><g transform="translate(110.036)"><path class="a" d="M126.2,13.261a2.892,2.892,0,0,0-2.58-.454,17.12,17.12,0,0,1-4.033.7V12.149a4.776,4.776,0,0,0,3.886-4.686c0-1.049-.637-2.485-1.946-4.39C120.588,1.7,119.6.543,119.413.324a.931.931,0,0,0-1.412,0c-.188.219-1.176,1.381-2.117,2.75-1.31,1.9-1.946,3.34-1.946,4.39a4.776,4.776,0,0,0,3.869,4.683v1.36a17.123,17.123,0,0,1-4.015-.7,2.918,2.918,0,0,0-3.756,2.8V27.663a2.758,2.758,0,0,0,2.754,2.754h11.834a2.758,2.758,0,0,0,2.754-2.754V15.6A2.892,2.892,0,0,0,126.2,13.261Zm-10.483-5.8c0-1.013,1.416-3.247,2.986-5.2,1.57,1.952,2.986,4.187,2.986,5.2a2.992,2.992,0,0,1-2.1,2.853V9.093a.891.891,0,0,0-1.783,0v1.217A2.992,2.992,0,0,1,115.721,7.463Zm9.876,20.2a.973.973,0,0,1-.972.972H112.791a.973.973,0,0,1-.972-.972V15.6a1.137,1.137,0,0,1,1.132-1.136,1.146,1.146,0,0,1,.33.049,18.842,18.842,0,0,0,10.855,0A1.135,1.135,0,0,1,125.6,15.6V27.663Z" transform="translate(-110.036)"/></g></g></svg>